<svg width="406" height="113" viewBox="0 0 406 113" fill="none" xmlns="http://www.w3.org/2000/svg">
<!-- X icon scaled to match Supabase icon proportions -->
<g transform="translate(5, 7) scale(2.2)">
<path d="M0 0 C3.96 0 7.92 0 12 0 C12 1.32 12 2.64 12 4 C13.32 4 14.64 4 16 4 C16 5.32 16 6.64 16 8 C17.32 8 18.64 8 20 8 C20 9.32 20 10.64 20 12 C21.32 12 22.64 12 24 12 C24 13.32 24 14.64 24 16 C25.32 16 26.64 16 28 16 C28 17.32 28 18.64 28 20 C26.68 20 25.36 20 24 20 C24 21.32 24 22.64 24 24 C22.68 24 21.36 24 20 24 C20 25.32 20 26.64 20 28 C18.68 28 17.36 28 16 28 C16 29.32 16 30.64 16 32 C14.68 32 13.36 32 12 32 C12 33.32 12 34.64 12 36 C8.04 36 4.08 36 0 36 C0 34.68 0 33.36 0 32 C1.32 32 2.64 32 4 32 C4 30.68 4 29.36 4 28 C5.32 28 6.64 28 8 28 C8 26.68 8 25.36 8 24 C9.32 24 10.64 24 12 24 C12 22.68 12 21.36 12 20 C13.32 20 14.64 20 16 20 C16 18.68 16 17.36 16 16 C14.68 16 13.36 16 12 16 C12 14.68 12 13.36 12 12 C10.68 12 9.36 12 8 12 C8 10.68 8 9.36 8 8 C6.68 8 5.36 8 4 8 C4 6.68 4 5.36 4 4 C2.68 4 1.36 4 0 4 C0 2.68 0 1.36 0 0 Z " fill="white" transform="translate(2,6)"/>
<path d="M0 0 C1.32 0 2.64 0 4 0 C4 1.32 4 2.64 4 4 C2.68 4 1.36 4 0 4 C0 2.68 0 1.36 0 0 Z " fill="white" transform="translate(42,38)"/>
<path d="M0 0 C1.32 0 2.64 0 4 0 C4 1.32 4 2.64 4 4 C2.68 4 1.36 4 0 4 C0 2.68 0 1.36 0 0 Z " fill="white" transform="translate(34,38)"/>
<path d="M0 0 C1.32 0 2.64 0 4 0 C4 1.32 4 2.64 4 4 C2.68 4 1.36 4 0 4 C0 2.68 0 1.36 0 0 Z " fill="white" transform="translate(38,34)"/>
<path d="M0 0 C1.32 0 2.64 0 4 0 C4 1.32 4 2.64 4 4 C2.68 4 1.36 4 0 4 C0 2.68 0 1.36 0 0 Z " fill="white" transform="translate(30,34)"/>
<path d="M0 0 C1.32 0 2.64 0 4 0 C4 1.32 4 2.64 4 4 C2.68 4 1.36 4 0 4 C0 2.68 0 1.36 0 0 Z " fill="white" transform="translate(34,30)"/>
<path d="M0 0 C1.32 0 2.64 0 4 0 C4 1.32 4 2.64 4 4 C2.68 4 1.36 4 0 4 C0 2.68 0 1.36 0 0 Z " fill="white" transform="translate(26,30)"/>
<path d="M0 0 C1.32 0 2.64 0 4 0 C4 1.32 4 2.64 4 4 C2.68 4 1.36 4 0 4 C0 2.68 0 1.36 0 0 Z " fill="white" transform="translate(30,26)"/>
<path d="M0 0 C1.32 0 2.64 0 4 0 C4 1.32 4 2.64 4 4 C2.68 4 1.36 4 0 4 C0 2.68 0 1.36 0 0 Z " fill="white" transform="translate(30,18)"/>
<path d="M0 0 C1.32 0 2.64 0 4 0 C4 1.32 4 2.64 4 4 C2.68 4 1.36 4 0 4 C0 2.68 0 1.36 0 0 Z " fill="white" transform="translate(34,14)"/>
<path d="M0 0 C1.32 0 2.64 0 4 0 C4 1.32 4 2.64 4 4 C2.68 4 1.36 4 0 4 C0 2.68 0 1.36 0 0 Z " fill="white" transform="translate(26,14)"/>
<path d="M0 0 C1.32 0 2.64 0 4 0 C4 1.32 4 2.64 4 4 C2.68 4 1.36 4 0 4 C0 2.68 0 1.36 0 0 Z " fill="white" transform="translate(38,10)"/>
<path d="M0 0 C1.32 0 2.64 0 4 0 C4 1.32 4 2.64 4 4 C2.68 4 1.36 4 0 4 C0 2.68 0 1.36 0 0 Z " fill="white" transform="translate(30,10)"/>
<path d="M0 0 C1.32 0 2.64 0 4 0 C4 1.32 4 2.64 4 4 C2.68 4 1.36 4 0 4 C0 2.68 0 1.36 0 0 Z " fill="white" transform="translate(42,6)"/>
<path d="M0 0 C1.32 0 2.64 0 4 0 C4 1.32 4 2.64 4 4 C2.68 4 1.36 4 0 4 C0 2.68 0 1.36 0 0 Z " fill="white" transform="translate(34,6)"/>
</g>
<!-- "axite" text - properly spaced like Supabase -->
<!-- 'a': x=151 to x=196 -->
<path d="M151 67.0609C151 74.7627 157.393 81.8643 167.883 81.8643C175.174 81.8643 179.87 78.4634 182.367 74.5625C182.367 76.463 182.567 79.1635 182.867 80.4639H195.055C194.755 78.7635 194.457 75.2627 194.457 72.6622V48.4567C194.457 38.5545 188.662 29.7527 173.078 29.7527C159.89 29.7527 152.796 38.2544 151.998 45.9562L163.786 48.4567C164.186 44.1558 167.383 40.455 173.176 40.455C178.772 40.455 181.469 43.3556 181.469 46.8564C181.469 48.5568 180.571 49.9572 177.773 50.3572L165.685 52.1576C157.493 53.3579 151 58.2589 151 67.0609ZM170.68 71.962C166.384 71.962 164.285 69.1614 164.285 66.2608C164.285 62.4599 166.982 60.5594 170.38 60.0594L181.469 58.359V60.5594C181.469 69.2615 176.274 71.962 170.68 71.962Z" fill="white"/>
<!-- 'x': x=206 to x=254 (gap of 10px after 'a') - bolder strokes -->
<path d="M206 31.2529H220L228 44L236 31.2529H250L236 55.8585L251 80.4639H237L228 67L219 80.4639H205L220 55.8585L206 31.2529Z" fill="white"/>
<!-- 'i': x=264 to x=278 (gap of 10px after 'x') -->
<path d="M264 80.4639H277.287V31.2529H264V80.4639ZM270.694 24.6515C275.289 24.6515 278.986 21.2507 278.986 16.8497C278.986 12.3487 275.289 8.94791 270.694 8.94791C265.998 8.94791 262.302 12.3487 262.302 16.8497C262.302 21.2507 265.998 24.6515 270.694 24.6515Z" fill="white"/>
<!-- 't': x=288 to x=323 (gap of 10px after 'i') -->
<path d="M310 31.2529V18.1501H296.713V31.2529H288.521V41.7553H296.713V65.0606C296.713 75.6628 303.806 81.2641 314.496 81.2641C318.693 81.2641 321.589 80.5639 323.487 79.8638V68.9612C322.188 69.2613 320.29 69.6614 318.093 69.6614C313.997 69.6614 310 68.4611 310 62.1597V41.7553H323.487V31.2529H310Z" fill="white"/>
<!-- 'e': x=343 to x=392 (gap of 20px after 't') -->
<path d="M343.385 50.2571C343.685 45.7562 347.482 40.5549 354.375 40.5549C361.967 40.5549 365.165 45.3561 365.365 50.2571H343.385ZM366.664 63.0601C365.065 67.4609 361.668 70.5617 355.474 70.5617C348.88 70.5617 343.385 65.8606 343.087 59.3593H378.252C378.252 59.159 378.451 57.1587 378.451 55.2582C378.451 39.4547 369.361 29.7527 354.175 29.7527C341.588 29.7527 329.998 39.9548 329.998 55.6584C329.998 72.262 341.886 81.9642 355.374 81.9642C367.462 81.9642 375.255 74.8626 377.753 66.3607L366.664 63.0601Z" fill="white"/>
</svg>
