<svg xmlns="http://www.w3.org/2000/svg" xmlns:xlink="http://www.w3.org/1999/xlink" width="500" zoomAndPan="magnify" viewBox="0 0 375 374.999991" height="500" preserveAspectRatio="xMidYMid meet" version="1.0"><defs><g/></defs><path stroke-linecap="round" transform="matrix(2.84375, 0, 0, 2.84375, 54.046477, 154.927871)" fill="none" stroke-linejoin="round" d="M 21.000142 8.007508 L 21.000142 15.992398 C 21.000142 16.350915 20.909483 16.68608 20.729538 16.995146 C 20.550966 17.305585 20.305087 17.550091 19.994647 17.728662 L 12.994647 21.735531 C 12.685581 21.911355 12.354537 21.999267 12.000141 21.999267 C 11.645745 21.999267 11.313328 21.911355 11.005636 21.735531 L 4.005635 17.728662 C 3.695195 17.550091 3.449316 17.305585 3.269371 16.995146 C 3.089426 16.68608 3.00014 16.350915 3.00014 15.992398 L 3.00014 8.007508 C 3.00014 7.648991 3.089426 7.313826 3.269371 7.00476 C 3.449316 6.694321 3.695195 6.449815 4.005635 6.272617 L 11.005636 2.264375 C 11.313328 2.088551 11.645745 2.000639 12.000141 2.000639 C 12.354537 2.000639 12.685581 2.088551 12.994647 2.264375 L 19.994647 6.272617 C 20.305087 6.449815 20.550966 6.694321 20.729538 7.00476 C 20.909483 7.313826 21.000142 7.648991 21.000142 8.007508 " stroke="#ffffff" stroke-width="2" stroke-opacity="1" stroke-miterlimit="4"/><path stroke-linecap="round" transform="matrix(2.84375, 0, 0, 2.84375, 54.046477, 154.927871)" fill="none" stroke-linejoin="round" d="M 3.289975 6.970419 L 7.500141 9.000639 " stroke="#ffffff" stroke-width="2" stroke-opacity="1" stroke-miterlimit="4"/><path stroke-linecap="round" transform="matrix(2.84375, 0, 0, 2.84375, 54.046477, 154.927871)" fill="none" stroke-linejoin="round" d="M 20.710307 6.970419 L 16.500142 9.000639 " stroke="#ffffff" stroke-width="2" stroke-opacity="1" stroke-miterlimit="4"/><path stroke-linecap="round" transform="matrix(2.84375, 0, 0, 2.84375, 54.046477, 154.927871)" fill="none" stroke-linejoin="round" d="M 20.699318 17.00064 L 3.299591 17.00064 " stroke="#ffffff" stroke-width="2" stroke-opacity="1" stroke-miterlimit="4"/><path stroke-linecap="round" transform="matrix(2.84375, 0, 0, 2.84375, 54.046477, 154.927871)" fill="none" stroke-linejoin="round" d="M 11.759756 2.029485 L 7.500141 9.000639 L 3.199316 16.839926 " stroke="#ffffff" stroke-width="2" stroke-opacity="1" stroke-miterlimit="4"/><path stroke-linecap="round" transform="matrix(2.84375, 0, 0, 2.84375, 54.046477, 154.927871)" fill="none" stroke-linejoin="round" d="M 12.240526 2.029485 C 14.104537 4.98965 15.524867 7.313826 16.500142 9.000639 C 17.475416 10.686079 18.908109 13.30009 20.799592 16.839926 " stroke="#ffffff" stroke-width="2" stroke-opacity="1" stroke-miterlimit="4"/><path stroke-linecap="round" transform="matrix(2.84375, 0, 0, 2.84375, 54.046477, 154.927871)" fill="none" stroke-linejoin="round" d="M 12.000141 17.00064 L 7.500141 9.000639 L 16.500142 9.000639 Z M 12.000141 17.00064 " stroke="#ffffff" stroke-width="2" stroke-opacity="1" stroke-miterlimit="4"/><path stroke-linecap="round" transform="matrix(2.84375, 0, 0, 2.84375, 54.046477, 154.927871)" fill="none" stroke-linejoin="round" d="M 12.000141 17.00064 L 12.000141 22.000641 " stroke="#ffffff" stroke-width="2" stroke-opacity="1" stroke-miterlimit="4"/><g fill="#ffffff" fill-opacity="1"><g transform="translate(125.792868, 201.458044)"><g><path d="M 26.109375 -30.984375 L 38.03125 -1.609375 C 38.195312 -1.210938 38.238281 -0.875 38.15625 -0.59375 C 38.125 -0.476562 38.046875 -0.34375 37.921875 -0.1875 C 37.796875 -0.03125 37.5625 0.046875 37.21875 0.046875 L 32.6875 0.046875 C 32.09375 0.046875 31.679688 -0.265625 31.453125 -0.890625 L 20.9375 -27.125 C 20.914062 -27.1875 20.90625 -27.21875 20.90625 -27.21875 L 20.734375 -27.21875 C 20.734375 -27.21875 20.722656 -27.207031 20.703125 -27.1875 C 20.691406 -27.175781 20.671875 -27.144531 20.640625 -27.09375 L 15.21875 -13.359375 L 20.46875 -13.359375 C 21.0625 -13.359375 21.472656 -13.070312 21.703125 -12.5 L 23.234375 -8.734375 C 23.367188 -8.253906 23.3125 -7.84375 23.0625 -7.5 C 22.832031 -7.101562 22.460938 -6.90625 21.953125 -6.90625 L 12.671875 -6.90625 L 10.265625 -0.84375 C 10.035156 -0.25 9.640625 0.046875 9.078125 0.046875 L 4.40625 0.046875 C 4.070312 0.046875 3.835938 -0.03125 3.703125 -0.1875 C 3.578125 -0.34375 3.5 -0.476562 3.46875 -0.59375 C 3.382812 -0.84375 3.414062 -1.179688 3.5625 -1.609375 L 15.390625 -30.984375 C 15.953125 -32.484375 16.570312 -33.515625 17.25 -34.078125 C 17.332031 -34.140625 17.429688 -34.210938 17.546875 -34.296875 C 17.660156 -34.378906 17.773438 -34.445312 17.890625 -34.5 C 18.734375 -35.09375 19.707031 -35.390625 20.8125 -35.390625 C 21.96875 -35.390625 23.007812 -35.035156 23.9375 -34.328125 C 24.875 -33.628906 25.515625 -32.726562 25.859375 -31.625 C 25.910156 -31.539062 25.957031 -31.441406 26 -31.328125 C 26.039062 -31.210938 26.078125 -31.097656 26.109375 -30.984375 Z M 26.109375 -30.984375 "/></g></g></g><g fill="#ffffff" fill-opacity="1"><g transform="translate(169.536018, 201.458044)"><g><path d="M 23.40625 -18.09375 L 34.765625 -1.859375 C 35.015625 -1.523438 35.097656 -1.175781 35.015625 -0.8125 C 34.960938 -0.269531 34.648438 0 34.078125 0 L 29.171875 0 C 28.796875 0 28.5 -0.0546875 28.28125 -0.171875 C 28.164062 -0.253906 28.054688 -0.351562 27.953125 -0.46875 C 27.859375 -0.582031 27.769531 -0.722656 27.6875 -0.890625 L 19.125 -13.015625 L 10.515625 -0.84375 C 10.347656 -0.5625 10.148438 -0.351562 9.921875 -0.21875 C 9.753906 -0.0703125 9.457031 0 9.03125 0 L 4.359375 0 C 3.828125 0 3.519531 -0.269531 3.4375 -0.8125 C 3.375 -1.226562 3.472656 -1.578125 3.734375 -1.859375 L 15.390625 -18.359375 L 4.875 -33.0625 C 4.644531 -33.375 4.5625 -33.726562 4.625 -34.125 C 4.675781 -34.664062 4.984375 -34.9375 5.546875 -34.9375 L 10.46875 -34.9375 C 10.832031 -34.9375 11.128906 -34.863281 11.359375 -34.71875 C 11.617188 -34.519531 11.816406 -34.304688 11.953125 -34.078125 L 19.453125 -23.234375 L 27.421875 -34.078125 C 27.566406 -34.304688 27.765625 -34.519531 28.015625 -34.71875 C 28.242188 -34.863281 28.539062 -34.9375 28.90625 -34.9375 L 33.578125 -34.9375 C 34.140625 -34.9375 34.460938 -34.664062 34.546875 -34.125 C 34.609375 -33.695312 34.507812 -33.34375 34.25 -33.0625 Z M 23.40625 -18.09375 "/></g></g></g><g fill="#ffffff" fill-opacity="1"><g transform="translate(210.10016, 201.458044)"><g><path d="M 8.484375 -34.9375 C 8.648438 -34.9375 8.890625 -34.847656 9.203125 -34.671875 C 9.515625 -34.503906 9.671875 -34.097656 9.671875 -33.453125 L 9.671875 -1.4375 C 9.671875 -0.789062 9.515625 -0.378906 9.203125 -0.203125 C 8.890625 -0.0351562 8.648438 0.046875 8.484375 0.046875 L 4.578125 0.046875 C 4.410156 0.046875 4.171875 -0.0351562 3.859375 -0.203125 C 3.546875 -0.378906 3.390625 -0.789062 3.390625 -1.4375 L 3.390625 -33.453125 C 3.390625 -34.097656 3.546875 -34.503906 3.859375 -34.671875 C 4.171875 -34.847656 4.410156 -34.9375 4.578125 -34.9375 Z M 8.484375 -34.9375 "/></g></g></g><g fill="#ffffff" fill-opacity="1"><g transform="translate(225.274624, 201.458044)"><g><path d="M 32.6875 -34.9375 C 32.882812 -34.9375 33.132812 -34.859375 33.4375 -34.703125 C 33.75 -34.546875 33.90625 -34.140625 33.90625 -33.484375 L 33.90625 -30.1875 C 33.90625 -29.476562 33.75 -29.046875 33.4375 -28.890625 C 33.132812 -28.734375 32.882812 -28.65625 32.6875 -28.65625 L 21.78125 -28.65625 L 21.78125 -1.4375 C 21.78125 -0.789062 21.632812 -0.390625 21.34375 -0.234375 C 21.050781 -0.078125 20.804688 0 20.609375 0 L 16.703125 0 C 16.535156 0 16.296875 -0.078125 15.984375 -0.234375 C 15.671875 -0.390625 15.515625 -0.789062 15.515625 -1.4375 L 15.515625 -28.65625 L 4.625 -28.65625 C 4.425781 -28.65625 4.171875 -28.734375 3.859375 -28.890625 C 3.546875 -29.046875 3.390625 -29.476562 3.390625 -30.1875 L 3.390625 -33.484375 C 3.390625 -34.140625 3.546875 -34.546875 3.859375 -34.703125 C 4.171875 -34.859375 4.425781 -34.9375 4.625 -34.9375 Z M 32.6875 -34.9375 "/></g></g></g><g fill="#ffffff" fill-opacity="1"><g transform="translate(264.694322, 201.458044)"><g><path d="M 28.875 -7.59375 C 29.070312 -7.59375 29.320312 -7.515625 29.625 -7.359375 C 29.9375 -7.203125 30.09375 -6.796875 30.09375 -6.140625 L 30.09375 -1.484375 C 30.09375 -0.835938 29.9375 -0.4375 29.625 -0.28125 C 29.320312 -0.125 29.070312 -0.046875 28.875 -0.046875 L 13.8125 -0.046875 C 12.882812 -0.046875 12.023438 -0.0976562 11.234375 -0.203125 C 10.441406 -0.316406 9.722656 -0.503906 9.078125 -0.765625 C 7.691406 -1.242188 6.585938 -2.019531 5.765625 -3.09375 C 4.921875 -4.195312 4.3125 -5.582031 3.9375 -7.25 C 3.800781 -7.957031 3.679688 -8.734375 3.578125 -9.578125 C 3.484375 -10.429688 3.421875 -11.347656 3.390625 -12.328125 L 3.390625 -12.546875 L 3.46875 -17.890625 C 3.5625 -18.203125 3.71875 -18.554688 3.9375 -18.953125 C 4.5625 -20.054688 5.523438 -20.648438 6.828125 -20.734375 L 28.703125 -20.765625 C 28.867188 -20.765625 29.109375 -20.6875 29.421875 -20.53125 C 29.734375 -20.382812 29.890625 -19.984375 29.890625 -19.328125 L 29.890625 -15.984375 C 29.890625 -15.328125 29.734375 -14.914062 29.421875 -14.75 C 29.109375 -14.582031 28.867188 -14.5 28.703125 -14.5 L 9.75 -14.5 C 9.75 -14.5 9.738281 -14.34375 9.71875 -14.03125 C 9.707031 -13.71875 9.695312 -13.363281 9.6875 -12.96875 C 9.675781 -12.570312 9.671875 -12.21875 9.671875 -11.90625 C 9.671875 -11.601562 9.671875 -11.453125 9.671875 -11.453125 C 9.691406 -11.335938 9.703125 -11.210938 9.703125 -11.078125 C 9.703125 -10.953125 9.71875 -10.832031 9.75 -10.71875 C 9.863281 -9.925781 10.101562 -9.289062 10.46875 -8.8125 C 10.8125 -8.394531 11.238281 -8.085938 11.75 -7.890625 C 12.050781 -7.796875 12.378906 -7.722656 12.734375 -7.671875 C 13.085938 -7.617188 13.492188 -7.59375 13.953125 -7.59375 Z M 7.125 -20.390625 Z M 28.90625 -35.015625 C 29.082031 -35.015625 29.320312 -34.925781 29.625 -34.75 C 29.9375 -34.582031 30.09375 -34.175781 30.09375 -33.53125 L 30.09375 -30.1875 C 30.09375 -29.53125 29.9375 -29.117188 29.625 -28.953125 C 29.320312 -28.785156 29.082031 -28.703125 28.90625 -28.703125 L 4.53125 -28.734375 C 4.363281 -28.734375 4.128906 -28.8125 3.828125 -28.96875 C 3.535156 -29.125 3.390625 -29.53125 3.390625 -30.1875 L 3.390625 -33.484375 C 3.390625 -34.160156 3.535156 -34.582031 3.828125 -34.75 C 4.128906 -34.925781 4.363281 -35.015625 4.53125 -35.015625 Z M 28.90625 -35.015625 "/></g></g></g></svg>