<svg xmlns="http://www.w3.org/2000/svg" xmlns:xlink="http://www.w3.org/1999/xlink" width="1080" zoomAndPan="magnify" viewBox="0 0 810 809.999993" height="1080" preserveAspectRatio="xMidYMid meet" version="1.0"><path stroke-linecap="round" transform="matrix(9.156874, 0, 0, 9.156874, 1.099339, 292.468541)" fill="none" stroke-linejoin="round" d="M 20.999664 8.006729 L 20.999664 15.99296 C 20.999664 16.351724 20.91008 16.685319 20.730058 16.995878 C 20.550463 17.306437 20.304319 17.549594 19.994187 17.72791 L 12.993811 21.734889 C 12.686238 21.910645 12.355202 21.999803 11.999425 21.999803 C 11.644927 21.999803 11.313891 21.910645 11.006318 21.734889 L 4.006369 17.72791 C 3.69453 17.549594 3.450093 17.306437 3.270071 16.995878 C 3.090049 16.685319 2.999612 16.351724 2.999612 15.99296 L 2.999612 8.006729 C 2.999612 7.648392 3.090049 7.31437 3.270071 7.004238 C 3.450093 6.693679 3.69453 6.450522 4.006369 6.271779 L 11.006318 2.265227 C 11.313891 2.089044 11.644927 1.999886 11.999425 1.999886 C 12.355202 1.999886 12.686238 2.089044 12.993811 2.265227 L 19.994187 6.271779 C 20.304319 6.450522 20.550463 6.693679 20.730058 7.004238 C 20.91008 7.31437 20.999664 7.648392 20.999664 8.006729 " stroke="#000000" stroke-width="2" stroke-opacity="1" stroke-miterlimit="4"/><path stroke-linecap="round" transform="matrix(9.156874, 0, 0, 9.156874, 1.099339, 292.468541)" fill="none" stroke-linejoin="round" d="M 3.290547 6.969684 L 7.499305 8.999836 " stroke="#000000" stroke-width="2" stroke-opacity="1" stroke-miterlimit="4"/><path stroke-linecap="round" transform="matrix(9.156874, 0, 0, 9.156874, 1.099339, 292.468541)" fill="none" stroke-linejoin="round" d="M 20.709582 6.969684 L 16.499544 8.999836 " stroke="#000000" stroke-width="2" stroke-opacity="1" stroke-miterlimit="4"/><path stroke-linecap="round" transform="matrix(9.156874, 0, 0, 9.156874, 1.099339, 292.468541)" fill="none" stroke-linejoin="round" d="M 20.700196 17.000143 L 3.300359 17.000143 " stroke="#000000" stroke-width="2" stroke-opacity="1" stroke-miterlimit="4"/><path stroke-linecap="round" transform="matrix(9.156874, 0, 0, 9.156874, 1.099339, 292.468541)" fill="none" stroke-linejoin="round" d="M 11.760533 2.030174 L 7.499305 8.999836 L 3.20011 16.840598 " stroke="#000000" stroke-width="2" stroke-opacity="1" stroke-miterlimit="4"/><path stroke-linecap="round" transform="matrix(9.156874, 0, 0, 9.156874, 1.099339, 292.468541)" fill="none" stroke-linejoin="round" d="M 12.240023 2.030174 C 14.105083 4.990297 15.524355 7.313091 16.499544 8.999836 C 17.474734 10.686581 18.908936 13.299457 20.800446 16.840598 " stroke="#000000" stroke-width="2" stroke-opacity="1" stroke-miterlimit="4"/><path stroke-linecap="round" transform="matrix(9.156874, 0, 0, 9.156874, 1.099339, 292.468541)" fill="none" stroke-linejoin="round" d="M 11.999425 17.000143 L 7.499305 8.999836 L 16.499544 8.999836 Z M 11.999425 17.000143 " stroke="#000000" stroke-width="2" stroke-opacity="1" stroke-miterlimit="4"/><path stroke-linecap="round" transform="matrix(9.156874, 0, 0, 9.156874, 1.099339, 292.468541)" fill="none" stroke-linejoin="round" d="M 11.999425 17.000143 L 11.999425 21.999803 " stroke="#000000" stroke-width="2" stroke-opacity="1" stroke-miterlimit="4"/><path fill="#000000" d="M 321.484375 347.816406 L 359.871094 442.402344 C 360.402344 443.6875 360.539062 444.765625 360.273438 445.671875 C 360.175781 446.050781 359.921875 446.476562 359.519531 446.980469 C 359.117188 447.484375 358.363281 447.734375 357.257812 447.734375 L 342.664062 447.734375 C 340.753906 447.734375 339.421875 446.730469 338.691406 444.71875 L 304.832031 360.242188 C 304.753906 360.042969 304.730469 359.941406 304.730469 359.941406 L 304.175781 359.941406 C 304.175781 359.941406 304.140625 359.976562 304.074219 360.042969 C 304.039062 360.078125 303.976562 360.179688 303.875 360.34375 L 286.417969 404.566406 L 303.320312 404.566406 C 305.234375 404.566406 306.554688 405.5 307.296875 407.335938 L 312.226562 419.460938 C 312.65625 421.007812 312.476562 422.328125 311.671875 423.433594 C 310.929688 424.71875 309.734375 425.347656 308.101562 425.347656 L 278.214844 425.347656 L 270.46875 444.867188 C 269.726562 446.78125 268.453125 447.734375 266.644531 447.734375 L 251.601562 447.734375 C 250.519531 447.734375 249.765625 447.484375 249.335938 446.980469 C 248.933594 446.476562 248.683594 446.050781 248.582031 445.671875 C 248.304688 444.867188 248.40625 443.785156 248.882812 442.402344 L 286.96875 347.816406 C 288.78125 342.984375 290.769531 339.664062 292.957031 337.851562 C 293.222656 337.652344 293.535156 337.425781 293.914062 337.148438 C 294.277344 336.886719 294.640625 336.671875 295.019531 336.496094 C 297.738281 334.582031 300.867188 333.628906 304.429688 333.628906 C 308.152344 333.628906 311.496094 334.773438 314.492188 337.046875 C 317.507812 339.300781 319.574219 342.207031 320.679688 345.753906 C 320.84375 346.027344 320.992188 346.34375 321.132812 346.707031 C 321.257812 347.085938 321.382812 347.449219 321.484375 347.816406 Z M 321.484375 347.816406 " fill-opacity="1" fill-rule="nonzero"/><path fill="#000000" d="M 453.632812 389.324219 L 490.210938 441.597656 C 491.015625 442.679688 491.28125 443.800781 491.015625 444.96875 C 490.839844 446.71875 489.832031 447.585938 487.996094 447.585938 L 472.199219 447.585938 C 470.992188 447.585938 470.035156 447.410156 469.332031 447.03125 C 468.953125 446.765625 468.601562 446.453125 468.273438 446.074219 C 467.972656 445.710938 467.683594 445.257812 467.417969 444.71875 L 439.847656 405.675781 L 412.125 444.867188 C 411.585938 445.773438 410.941406 446.453125 410.214844 446.878906 C 409.671875 447.359375 408.714844 447.585938 407.34375 447.585938 L 392.300781 447.585938 C 390.589844 447.585938 389.597656 446.71875 389.332031 444.96875 C 389.132812 443.636719 389.445312 442.503906 390.289062 441.597656 L 427.824219 388.46875 L 393.960938 341.125 C 393.21875 340.117188 392.957031 338.984375 393.15625 337.703125 C 393.320312 335.964844 394.316406 335.085938 396.125 335.085938 L 411.972656 335.085938 C 413.144531 335.085938 414.101562 335.324219 414.84375 335.789062 C 415.671875 336.433594 416.3125 337.125 416.753906 337.851562 L 440.902344 372.769531 L 466.5625 337.851562 C 467.027344 337.125 467.671875 336.433594 468.476562 335.789062 C 469.203125 335.324219 470.160156 335.085938 471.34375 335.085938 L 486.386719 335.085938 C 488.199219 335.085938 489.230469 335.964844 489.503906 337.703125 C 489.707031 339.085938 489.378906 340.21875 488.550781 341.125 Z M 453.632812 389.324219 " fill-opacity="1" fill-rule="nonzero"/><path fill="#000000" d="M 536.199219 335.085938 C 536.730469 335.085938 537.507812 335.375 538.515625 335.941406 C 539.523438 336.480469 540.023438 337.789062 540.023438 339.867188 L 540.023438 442.957031 C 540.023438 445.042969 539.523438 446.363281 538.515625 446.929688 C 537.507812 447.472656 536.730469 447.734375 536.199219 447.734375 L 523.621094 447.734375 C 523.082031 447.734375 522.316406 447.472656 521.308594 446.929688 C 520.300781 446.363281 519.800781 445.042969 519.800781 442.957031 L 519.800781 339.867188 C 519.800781 337.789062 520.300781 336.480469 521.308594 335.941406 C 522.316406 335.375 523.082031 335.085938 523.621094 335.085938 Z M 536.199219 335.085938 " fill-opacity="1" fill-rule="nonzero"/><path fill="#000000" d="M 662.996094 335.085938 C 663.625 335.085938 664.429688 335.335938 665.410156 335.839844 C 666.417969 336.34375 666.921875 337.652344 666.921875 339.765625 L 666.921875 350.382812 C 666.921875 352.671875 666.417969 354.054688 665.410156 354.558594 C 664.429688 355.058594 663.625 355.3125 662.996094 355.3125 L 627.878906 355.3125 L 627.878906 442.957031 C 627.878906 445.042969 627.402344 446.328125 626.46875 446.832031 C 625.527344 447.332031 624.734375 447.585938 624.105469 447.585938 L 611.527344 447.585938 C 610.988281 447.585938 610.21875 447.332031 609.214844 446.832031 C 608.207031 446.328125 607.703125 445.042969 607.703125 442.957031 L 607.703125 355.3125 L 572.636719 355.3125 C 571.996094 355.3125 571.175781 355.058594 570.171875 354.558594 C 569.164062 354.054688 568.660156 352.671875 568.660156 350.382812 L 568.660156 339.765625 C 568.660156 337.652344 569.164062 336.34375 570.171875 335.839844 C 571.175781 335.335938 571.996094 335.085938 572.636719 335.085938 Z M 662.996094 335.085938 " fill-opacity="1" fill-rule="nonzero"/><path fill="#000000" d="M 777.652344 423.132812 C 778.28125 423.132812 779.085938 423.382812 780.066406 423.886719 C 781.074219 424.390625 781.578125 425.699219 781.578125 427.8125 L 781.578125 442.804688 C 781.578125 444.894531 781.074219 446.175781 780.066406 446.679688 C 779.085938 447.183594 778.28125 447.433594 777.652344 447.433594 L 729.152344 447.433594 C 726.15625 447.433594 723.390625 447.269531 720.847656 446.929688 C 718.296875 446.566406 715.980469 445.960938 713.90625 445.121094 C 709.441406 443.585938 705.882812 441.082031 703.238281 437.625 C 700.523438 434.074219 698.5625 429.609375 697.351562 424.238281 C 696.914062 421.964844 696.523438 419.460938 696.195312 416.742188 C 695.894531 414 695.691406 411.046875 695.59375 407.886719 L 695.59375 407.183594 L 695.84375 389.976562 C 696.144531 388.972656 696.648438 387.839844 697.351562 386.554688 C 699.367188 383.007812 702.460938 381.097656 706.660156 380.820312 L 777.097656 380.71875 C 777.628906 380.71875 778.40625 380.972656 779.414062 381.472656 C 780.417969 381.953125 780.921875 383.234375 780.921875 385.347656 L 780.921875 396.117188 C 780.921875 398.226562 780.417969 399.5625 779.414062 400.089844 C 778.40625 400.628906 777.628906 400.894531 777.097656 400.894531 L 716.070312 400.894531 C 716.070312 400.894531 716.03125 401.398438 715.96875 402.40625 C 715.929688 403.410156 715.894531 404.554688 715.867188 405.824219 C 715.832031 407.109375 715.816406 408.242188 715.816406 409.246094 C 715.816406 410.226562 715.816406 410.707031 715.816406 410.707031 C 715.882812 411.082031 715.917969 411.484375 715.917969 411.914062 C 715.917969 412.316406 715.96875 412.707031 716.070312 413.070312 C 716.433594 415.625 717.203125 417.675781 718.382812 419.207031 C 719.492188 420.554688 720.863281 421.546875 722.507812 422.175781 C 723.476562 422.480469 724.535156 422.71875 725.679688 422.882812 C 726.8125 423.058594 728.121094 423.132812 729.605469 423.132812 Z M 707.617188 381.925781 Z M 777.753906 334.835938 C 778.320312 334.835938 779.085938 335.125 780.066406 335.691406 C 781.074219 336.230469 781.578125 337.539062 781.578125 339.613281 L 781.578125 350.382812 C 781.578125 352.496094 781.074219 353.828125 780.066406 354.355469 C 779.085938 354.898438 778.320312 355.160156 777.753906 355.160156 L 699.265625 355.058594 C 698.722656 355.058594 697.96875 354.808594 697 354.304688 C 696.058594 353.800781 695.59375 352.496094 695.59375 350.382812 L 695.59375 339.765625 C 695.59375 337.589844 696.058594 336.230469 697 335.691406 C 697.96875 335.125 698.722656 334.835938 699.265625 334.835938 Z M 777.753906 334.835938 " fill-opacity="1" fill-rule="nonzero"/></svg>