<svg xmlns="http://www.w3.org/2000/svg" xmlns:xlink="http://www.w3.org/1999/xlink" width="500" zoomAndPan="magnify" viewBox="0 0 375 374.999991" height="500" preserveAspectRatio="xMidYMid meet" version="1.0"><defs><g/><clipPath id="e433b19b12"><rect x="0" width="300" y="0" height="81"/></clipPath></defs><path stroke-linecap="round" transform="matrix(6.249999, 0, 0, 6.249999, 112.499997, 64.423076)" fill="none" stroke-linejoin="round" d="M 21.000002 8.007309 L 21.000002 15.992934 C 21.000002 16.169184 20.976877 16.342309 20.931252 16.512309 C 20.885627 16.682309 20.818752 16.843559 20.730002 16.995434 C 20.641877 17.147934 20.535002 17.286059 20.410627 17.410434 C 20.285627 17.534809 20.146877 17.640434 19.993752 17.727934 L 12.993752 21.73481 C 12.842502 21.821685 12.682502 21.88731 12.514377 21.93231 C 12.345627 21.97731 12.174377 21.99981 12.000002 21.99981 C 11.825627 21.99981 11.654377 21.97731 11.485627 21.93231 C 11.317501 21.88731 11.157501 21.821685 11.006251 21.73481 L 4.006251 17.727934 C 3.853126 17.640434 3.714376 17.534809 3.589376 17.410434 C 3.465001 17.286059 3.358126 17.147934 3.270001 16.995434 C 3.181251 16.843559 3.114376 16.682309 3.068751 16.512309 C 3.023126 16.342309 3.000001 16.169184 3.000001 15.992934 L 3.000001 8.007309 C 3.000001 7.831059 3.023126 7.657934 3.068751 7.487934 C 3.114376 7.317934 3.181251 7.156684 3.270001 7.004184 C 3.358126 6.851684 3.465001 6.713558 3.589376 6.589808 C 3.714376 6.465433 3.853126 6.359808 4.006251 6.272308 L 11.006251 2.264808 C 11.157501 2.178558 11.317501 2.112308 11.485627 2.067933 C 11.654377 2.022933 11.825627 2.000433 12.000002 2.000433 C 12.174377 2.000433 12.345627 2.022933 12.514377 2.067933 C 12.682502 2.112308 12.842502 2.178558 12.993752 2.264808 L 19.993752 6.272308 C 20.146877 6.359808 20.285627 6.465433 20.410627 6.589808 C 20.535002 6.713558 20.641877 6.851684 20.730002 7.004184 C 20.818752 7.156684 20.885627 7.317934 20.931252 7.487934 C 20.976877 7.657934 21.000002 7.831059 21.000002 8.007309 " stroke="#000000" stroke-width="2" stroke-opacity="1" stroke-miterlimit="4"/><path stroke-linecap="round" transform="matrix(6.249999, 0, 0, 6.249999, 112.499997, 64.423076)" fill="none" stroke-linejoin="round" d="M 3.290001 6.969809 L 7.500001 8.999809 " stroke="#000000" stroke-width="2" stroke-opacity="1" stroke-miterlimit="4"/><path stroke-linecap="round" transform="matrix(6.249999, 0, 0, 6.249999, 112.499997, 64.423076)" fill="none" stroke-linejoin="round" d="M 20.710002 6.969809 L 16.500002 8.999809 " stroke="#000000" stroke-width="2" stroke-opacity="1" stroke-miterlimit="4"/><path stroke-linecap="round" transform="matrix(6.249999, 0, 0, 6.249999, 112.499997, 64.423076)" fill="none" stroke-linejoin="round" d="M 20.700002 16.999809 L 3.300001 16.999809 " stroke="#000000" stroke-width="2" stroke-opacity="1" stroke-miterlimit="4"/><path stroke-linecap="round" transform="matrix(6.249999, 0, 0, 6.249999, 112.499997, 64.423076)" fill="none" stroke-linejoin="round" d="M 11.760002 2.029808 L 7.500001 8.999809 L 3.200001 16.839809 " stroke="#000000" stroke-width="2" stroke-opacity="1" stroke-miterlimit="4"/><path stroke-linecap="round" transform="matrix(6.249999, 0, 0, 6.249999, 112.499997, 64.423076)" fill="none" stroke-linejoin="round" d="M 12.240002 2.029808 C 14.104377 4.989808 15.524377 7.313559 16.500002 8.999809 C 17.475627 10.686684 18.908752 13.299809 20.800002 16.839809 " stroke="#000000" stroke-width="2" stroke-opacity="1" stroke-miterlimit="4"/><path stroke-linecap="round" transform="matrix(6.249999, 0, 0, 6.249999, 112.499997, 64.423076)" fill="none" stroke-linejoin="round" d="M 12.000002 16.999809 L 7.500001 8.999809 L 16.500002 8.999809 Z M 12.000002 16.999809 " stroke="#000000" stroke-width="2" stroke-opacity="1" stroke-miterlimit="4"/><path stroke-linecap="round" transform="matrix(6.249999, 0, 0, 6.249999, 112.499997, 64.423076)" fill="none" stroke-linejoin="round" d="M 12.000002 16.999809 L 12.000002 21.99981 " stroke="#000000" stroke-width="2" stroke-opacity="1" stroke-miterlimit="4"/><g transform="matrix(1, 0, 0, 1, 37, 222)"><g clip-path="url(#e433b19b12)"><g fill="#000000" fill-opacity="1"><g transform="translate(2.246684, 61.375955)"><g><path d="M 44.375 -52.65625 L 64.609375 -2.734375 C 64.898438 -2.066406 64.972656 -1.492188 64.828125 -1.015625 C 64.773438 -0.816406 64.640625 -0.582031 64.421875 -0.3125 C 64.210938 -0.0507812 63.820312 0.078125 63.25 0.078125 L 55.53125 0.078125 C 54.53125 0.078125 53.835938 -0.453125 53.453125 -1.515625 L 35.578125 -46.09375 C 35.535156 -46.195312 35.515625 -46.25 35.515625 -46.25 L 35.21875 -46.25 C 35.21875 -46.25 35.207031 -46.234375 35.1875 -46.203125 C 35.164062 -46.179688 35.128906 -46.125 35.078125 -46.03125 L 25.859375 -22.6875 L 34.796875 -22.6875 C 35.796875 -22.6875 36.488281 -22.207031 36.875 -21.25 L 39.46875 -14.84375 C 39.707031 -14.019531 39.613281 -13.320312 39.1875 -12.75 C 38.800781 -12.070312 38.175781 -11.734375 37.3125 -11.734375 L 21.53125 -11.734375 L 17.4375 -1.4375 C 17.050781 -0.425781 16.378906 0.078125 15.421875 0.078125 L 7.484375 0.078125 C 6.910156 0.078125 6.515625 -0.0507812 6.296875 -0.3125 C 6.085938 -0.582031 5.957031 -0.816406 5.90625 -1.015625 C 5.757812 -1.441406 5.804688 -2.015625 6.046875 -2.734375 L 26.140625 -52.65625 C 27.109375 -55.195312 28.164062 -56.945312 29.3125 -57.90625 C 29.457031 -58.007812 29.625 -58.128906 29.8125 -58.265625 C 30.007812 -58.410156 30.203125 -58.535156 30.390625 -58.640625 C 31.835938 -59.640625 33.5 -60.140625 35.375 -60.140625 C 37.34375 -60.140625 39.117188 -59.539062 40.703125 -58.34375 C 42.285156 -57.144531 43.363281 -55.609375 43.9375 -53.734375 C 44.03125 -53.585938 44.113281 -53.414062 44.1875 -53.21875 C 44.257812 -53.03125 44.320312 -52.84375 44.375 -52.65625 Z M 44.375 -52.65625 "/></g></g></g><g fill="#000000" fill-opacity="1"><g transform="translate(76.566632, 61.375955)"><g><path d="M 39.765625 -30.75 L 59.0625 -3.171875 C 59.5 -2.597656 59.644531 -2 59.5 -1.375 C 59.40625 -0.457031 58.875 0 57.90625 0 L 49.5625 0 C 48.9375 0 48.429688 -0.09375 48.046875 -0.28125 C 47.847656 -0.425781 47.664062 -0.59375 47.5 -0.78125 C 47.332031 -0.976562 47.175781 -1.222656 47.03125 -1.515625 L 32.484375 -22.109375 L 17.859375 -1.4375 C 17.578125 -0.957031 17.242188 -0.597656 16.859375 -0.359375 C 16.566406 -0.117188 16.0625 0 15.34375 0 L 7.421875 0 C 6.503906 0 5.972656 -0.457031 5.828125 -1.375 C 5.734375 -2.09375 5.90625 -2.691406 6.34375 -3.171875 L 26.140625 -31.1875 L 8.28125 -56.1875 C 7.894531 -56.71875 7.75 -57.316406 7.84375 -57.984375 C 7.945312 -58.898438 8.476562 -59.359375 9.4375 -59.359375 L 17.796875 -59.359375 C 18.421875 -59.359375 18.921875 -59.238281 19.296875 -59 C 19.734375 -58.65625 20.070312 -58.289062 20.3125 -57.90625 L 33.0625 -39.46875 L 46.609375 -57.90625 C 46.847656 -58.289062 47.179688 -58.65625 47.609375 -59 C 47.992188 -59.238281 48.5 -59.359375 49.125 -59.359375 L 57.046875 -59.359375 C 58.003906 -59.359375 58.554688 -58.898438 58.703125 -57.984375 C 58.796875 -57.265625 58.628906 -56.664062 58.203125 -56.1875 Z M 39.765625 -30.75 "/></g></g></g><g fill="#000000" fill-opacity="1"><g transform="translate(145.485422, 61.375955)"><g><path d="M 14.40625 -59.359375 C 14.695312 -59.359375 15.101562 -59.210938 15.625 -58.921875 C 16.15625 -58.628906 16.421875 -57.929688 16.421875 -56.828125 L 16.421875 -2.453125 C 16.421875 -1.347656 16.15625 -0.648438 15.625 -0.359375 C 15.101562 -0.0664062 14.695312 0.078125 14.40625 0.078125 L 7.78125 0.078125 C 7.488281 0.078125 7.078125 -0.0664062 6.546875 -0.359375 C 6.023438 -0.648438 5.765625 -1.347656 5.765625 -2.453125 L 5.765625 -56.828125 C 5.765625 -57.929688 6.023438 -58.628906 6.546875 -58.921875 C 7.078125 -59.210938 7.488281 -59.359375 7.78125 -59.359375 Z M 14.40625 -59.359375 "/></g></g></g><g fill="#000000" fill-opacity="1"><g transform="translate(171.266954, 61.375955)"><g><path d="M 55.53125 -59.359375 C 55.875 -59.359375 56.304688 -59.222656 56.828125 -58.953125 C 57.359375 -58.691406 57.625 -58.007812 57.625 -56.90625 L 57.625 -51.28125 C 57.625 -50.082031 57.359375 -49.347656 56.828125 -49.078125 C 56.304688 -48.816406 55.875 -48.6875 55.53125 -48.6875 L 37.03125 -48.6875 L 37.03125 -2.453125 C 37.03125 -1.347656 36.773438 -0.660156 36.265625 -0.390625 C 35.765625 -0.128906 35.34375 0 35 0 L 28.375 0 C 28.09375 0 27.6875 -0.128906 27.15625 -0.390625 C 26.625 -0.660156 26.359375 -1.347656 26.359375 -2.453125 L 26.359375 -48.6875 L 7.84375 -48.6875 C 7.507812 -48.6875 7.078125 -48.816406 6.546875 -49.078125 C 6.023438 -49.347656 5.765625 -50.082031 5.765625 -51.28125 L 5.765625 -56.90625 C 5.765625 -58.007812 6.023438 -58.691406 6.546875 -58.953125 C 7.078125 -59.222656 7.507812 -59.359375 7.84375 -59.359375 Z M 55.53125 -59.359375 "/></g></g></g><g fill="#000000" fill-opacity="1"><g transform="translate(238.241325, 61.375955)"><g><path d="M 49.046875 -12.890625 C 49.390625 -12.890625 49.820312 -12.753906 50.34375 -12.484375 C 50.875 -12.222656 51.140625 -11.539062 51.140625 -10.4375 L 51.140625 -2.515625 C 51.140625 -1.410156 50.875 -0.726562 50.34375 -0.46875 C 49.820312 -0.207031 49.390625 -0.078125 49.046875 -0.078125 L 23.484375 -0.078125 C 21.898438 -0.078125 20.4375 -0.171875 19.09375 -0.359375 C 17.75 -0.546875 16.523438 -0.859375 15.421875 -1.296875 C 13.066406 -2.109375 11.191406 -3.429688 9.796875 -5.265625 C 8.359375 -7.128906 7.328125 -9.476562 6.703125 -12.3125 C 6.460938 -13.519531 6.253906 -14.84375 6.078125 -16.28125 C 5.910156 -17.71875 5.804688 -19.28125 5.765625 -20.96875 L 5.765625 -21.328125 L 5.90625 -30.390625 C 6.050781 -30.921875 6.316406 -31.523438 6.703125 -32.203125 C 7.753906 -34.066406 9.382812 -35.070312 11.59375 -35.21875 L 48.765625 -35.296875 C 49.054688 -35.296875 49.460938 -35.160156 49.984375 -34.890625 C 50.515625 -34.628906 50.78125 -33.945312 50.78125 -32.84375 L 50.78125 -27.15625 C 50.78125 -26.050781 50.515625 -25.351562 49.984375 -25.0625 C 49.460938 -24.78125 49.054688 -24.640625 48.765625 -24.640625 L 16.5625 -24.640625 C 16.5625 -24.640625 16.550781 -24.375 16.53125 -23.84375 C 16.507812 -23.3125 16.484375 -22.707031 16.453125 -22.03125 C 16.429688 -21.363281 16.421875 -20.765625 16.421875 -20.234375 C 16.421875 -19.710938 16.421875 -19.453125 16.421875 -19.453125 C 16.472656 -19.253906 16.5 -19.046875 16.5 -18.828125 C 16.5 -18.617188 16.519531 -18.414062 16.5625 -18.21875 C 16.757812 -16.875 17.171875 -15.796875 17.796875 -14.984375 C 18.367188 -14.265625 19.085938 -13.734375 19.953125 -13.390625 C 20.484375 -13.253906 21.046875 -13.132812 21.640625 -13.03125 C 22.242188 -12.9375 22.929688 -12.890625 23.703125 -12.890625 Z M 12.09375 -34.640625 Z M 49.125 -59.5 C 49.414062 -59.5 49.820312 -59.351562 50.34375 -59.0625 C 50.875 -58.78125 51.140625 -58.085938 51.140625 -56.984375 L 51.140625 -51.28125 C 51.140625 -50.175781 50.875 -49.476562 50.34375 -49.1875 C 49.820312 -48.90625 49.414062 -48.765625 49.125 -48.765625 L 7.703125 -48.84375 C 7.421875 -48.84375 7.023438 -48.972656 6.515625 -49.234375 C 6.015625 -49.492188 5.765625 -50.175781 5.765625 -51.28125 L 5.765625 -56.90625 C 5.765625 -58.0625 6.015625 -58.78125 6.515625 -59.0625 C 7.023438 -59.351562 7.421875 -59.5 7.703125 -59.5 Z M 49.125 -59.5 "/></g></g></g></g></g></svg>