<?xml version="1.0" encoding="UTF-8"?>
<svg version="1.1" xmlns="http://www.w3.org/2000/svg" width="500" height="500">

<path d="M0 0 C12.21 0 24.42 0 37 0 C37 4.29 37 8.58 37 13 C40.96 13 44.92 13 49 13 C49 17.29 49 21.58 49 26 C53.29 26 57.58 26 62 26 C62 49.76 62 73.52 62 98 C56.06 98 50.12 98 44 98 C44 88.43 44 78.86 44 69 C27.17 69 10.34 69 -7 69 C-7 78.57 -7 88.14 -7 98 C-13.27 98 -19.54 98 -26 98 C-26 73.91 -26 49.82 -26 25 C-22.04 25 -18.08 25 -14 25 C-14 21.04 -14 17.08 -14 13 C-9.38 13 -4.76 13 0 13 C0 8.71 0 4.42 0 0 Z " fill="#050505" transform="translate(43,198)"/>
<path d="M0 0 C27.06 0 54.12 0 82 0 C82 5.94 82 11.88 82 18 C61.21 18 40.42 18 19 18 C19 25.59 19 33.18 19 41 C33.52 41 48.04 41 63 41 C63 47.27 63 53.54 63 60 C48.81 60 34.62 60 20 60 C20 67.26 20 74.52 20 82 C40.46 82 60.92 82 82 82 C82 88.27 82 94.54 82 101 C54.94 101 27.88 101 0 101 C0 67.67 0 34.34 0 0 Z " fill="#070707" transform="translate(398,200)"/>
<path d="M0 0 C10.56 0 21.12 0 32 0 C32 3.63 32 7.26 32 11 C35.63 11 39.26 11 43 11 C43 14.63 43 18.26 43 22 C46.3 22 49.6 22 53 22 C53 25.3 53 28.6 53 32 C56.63 32 60.26 32 64 32 C64 28.7 64 25.4 64 22 C67.3 22 70.6 22 74 22 C74 18.37 74 14.74 74 11 C77.63 11 81.26 11 85 11 C85 14.63 85 18.26 85 22 C88.3 22 91.6 22 95 22 C95 25.3 95 28.6 95 32 C91.7 32 88.4 32 85 32 C85 35.63 85 39.26 85 43 C81.37 43 77.74 43 74 43 C74 46.3 74 49.6 74 53 C77.63 53 81.26 53 85 53 C85 56.63 85 60.26 85 64 C88.63 64 92.26 64 96 64 C96 67.3 96 70.6 96 74 C99.3 74 102.6 74 106 74 C106 77.63 106 81.26 106 85 C102.7 85 99.4 85 96 85 C96 88.3 96 91.6 96 95 C92.37 95 88.74 95 85 95 C85 91.7 85 88.4 85 85 C81.37 85 77.74 85 74 85 C74 81.7 74 78.4 74 75 C70.7 75 67.4 75 64 75 C64 71.37 64 67.74 64 64 C60.37 64 56.74 64 53 64 C53 67.3 53 70.6 53 74 C49.7 74 46.4 74 43 74 C43 77.63 43 81.26 43 85 C39.37 85 35.74 85 32 85 C32 88.63 32 92.26 32 96 C21.44 96 10.88 96 0 96 C0 92.37 0 88.74 0 85 C3.63 85 7.26 85 11 85 C11 81.37 11 77.74 11 74 C14.3 74 17.6 74 21 74 C21 70.7 21 67.4 21 64 C24.63 64 28.26 64 32 64 C32 60.37 32 56.74 32 53 C35.63 53 39.26 53 43 53 C43 49.7 43 46.4 43 43 C39.37 43 35.74 43 32 43 C32 39.37 32 35.74 32 32 C28.37 32 24.74 32 21 32 C21 28.7 21 25.4 21 22 C17.7 22 14.4 22 11 22 C11 18.37 11 14.74 11 11 C7.37 11 3.74 11 0 11 C0 7.37 0 3.74 0 0 Z " fill="#070707" transform="translate(115,198)"/>
<path d="M0 0 C30.36 0 60.72 0 92 0 C92 6.6 92 13.2 92 20 C80.12 20 68.24 20 56 20 C56 47.06 56 74.12 56 102 C49.4 102 42.8 102 36 102 C36 74.94 36 47.88 36 20 C24.12 20 12.24 20 0 20 C0 13.4 0 6.8 0 0 Z " fill="#0E0E0E" transform="translate(288,200)"/>
<path d="M0 0 C6.27 0 12.54 0 19 0 C19 32.34 19 64.68 19 98 C12.73 98 6.46 98 0 98 C0 65.66 0 33.32 0 0 Z " fill="#090909" transform="translate(252,198)"/>
<path d="M0 0 C8.58 0 17.16 0 26 0 C26 4.29 26 8.58 26 13 C30.29 13 34.58 13 39 13 C39 19.6 39 26.2 39 33 C21.84 33 4.68 33 -13 33 C-13 26.4 -13 19.8 -13 13 C-8.71 13 -4.42 13 0 13 C0 8.71 0 4.42 0 0 Z " fill="#F6F6F6" transform="translate(48,216)"/>
<path d="M0 0 C6.93 0 13.86 0 21 0 C21 3.63 21 7.26 21 11 C24.63 11 28.26 11 32 11 C32 14.3 32 17.6 32 21 C35.3 21 38.6 21 42 21 C42 24.63 42 28.26 42 32 C38.7 32 35.4 32 32 32 C32 35.3 32 38.6 32 42 C28.37 42 24.74 42 21 42 C21 38.7 21 35.4 21 32 C17.37 32 13.74 32 10 32 C10 28.7 10 25.4 10 22 C6.7 22 3.4 22 0 22 C0 14.74 0 7.48 0 0 Z " fill="#FAFAFA" transform="translate(179,251)"/>
<path d="M0 0 C3.63 0 7.26 0 11 0 C11 3.63 11 7.26 11 11 C14.3 11 17.6 11 21 11 C21 14.3 21 17.6 21 21 C17.7 21 14.4 21 11 21 C11 24.63 11 28.26 11 32 C4.07 32 -2.86 32 -10 32 C-10 25.07 -10 18.14 -10 11 C-6.7 11 -3.4 11 0 11 C0 7.37 0 3.74 0 0 Z " fill="#F4F4F4" transform="translate(189,209)"/>
<path d="M0 0 C3.3 0 6.6 0 10 0 C10 6.93 10 13.86 10 21 C6.7 21 3.4 21 0 21 C0 14.07 0 7.14 0 0 Z " fill="#F3F3F3" transform="translate(179,220)"/>
<path d="M0 0 C3.63 0 7.26 0 11 0 C11 3.63 11 7.26 11 11 C7.37 11 3.74 11 0 11 C0 7.37 0 3.74 0 0 Z " fill="#151515" transform="translate(189,251)"/>
<path d="M0 0 C3.63 0 7.26 0 11 0 C11 3.63 11 7.26 11 11 C7.37 11 3.74 11 0 11 C0 7.37 0 3.74 0 0 Z " fill="#151515" transform="translate(189,230)"/>
<path d="M0 0 C3.63 0 7.26 0 11 0 C11 3.63 11 7.26 11 11 C7.37 11 3.74 11 0 11 C0 7.37 0 3.74 0 0 Z " fill="#151515" transform="translate(189,209)"/>
<path d="M0 0 C3.63 0 7.26 0 11 0 C11 3.3 11 6.6 11 10 C7.37 10 3.74 10 0 10 C0 6.7 0 3.4 0 0 Z " fill="#0A0A0A" transform="translate(189,273)"/>
<path d="M0 0 C3.3 0 6.6 0 10 0 C10 3.63 10 7.26 10 11 C6.7 11 3.4 11 0 11 C0 7.37 0 3.74 0 0 Z " fill="#F3F3F3" transform="translate(179,251)"/>
<path d="M0 0 C3.3 0 6.6 0 10 0 C10 3.63 10 7.26 10 11 C6.7 11 3.4 11 0 11 C0 7.37 0 3.74 0 0 Z " fill="#0D0D0D" transform="translate(211,209)"/>
<path d="M0 0 C3.3 0 6.6 0 10 0 C10 3.3 10 6.6 10 10 C6.7 10 3.4 10 0 10 C0 6.7 0 3.4 0 0 Z " fill="#000000" transform="translate(221,283)"/>
<path d="M0 0 C3.3 0 6.6 0 10 0 C10 3.3 10 6.6 10 10 C6.7 10 3.4 10 0 10 C0 6.7 0 3.4 0 0 Z " fill="#000000" transform="translate(200,283)"/>
<path d="M0 0 C3.3 0 6.6 0 10 0 C10 3.3 10 6.6 10 10 C6.7 10 3.4 10 0 10 C0 6.7 0 3.4 0 0 Z " fill="#020202" transform="translate(211,273)"/>
<path d="M0 0 C3.3 0 6.6 0 10 0 C10 3.3 10 6.6 10 10 C6.7 10 3.4 10 0 10 C0 6.7 0 3.4 0 0 Z " fill="#FFFFFF" transform="translate(200,273)"/>
<path d="M0 0 C3.3 0 6.6 0 10 0 C10 3.3 10 6.6 10 10 C6.7 10 3.4 10 0 10 C0 6.7 0 3.4 0 0 Z " fill="#000000" transform="translate(200,262)"/>
<path d="M0 0 C3.3 0 6.6 0 10 0 C10 3.3 10 6.6 10 10 C6.7 10 3.4 10 0 10 C0 6.7 0 3.4 0 0 Z " fill="#000000" transform="translate(179,262)"/>
<path d="M0 0 C3.3 0 6.6 0 10 0 C10 3.3 10 6.6 10 10 C6.7 10 3.4 10 0 10 C0 6.7 0 3.4 0 0 Z " fill="#000000" transform="translate(200,220)"/>
<path d="M0 0 C3.3 0 6.6 0 10 0 C10 3.3 10 6.6 10 10 C6.7 10 3.4 10 0 10 C0 6.7 0 3.4 0 0 Z " fill="#000000" transform="translate(179,220)"/>
<path d="M0 0 C3.3 0 6.6 0 10 0 C10 3.3 10 6.6 10 10 C6.7 10 3.4 10 0 10 C0 6.7 0 3.4 0 0 Z " fill="#000000" transform="translate(221,199)"/>
<path d="M0 0 C3.3 0 6.6 0 10 0 C10 3.3 10 6.6 10 10 C6.7 10 3.4 10 0 10 C0 6.7 0 3.4 0 0 Z " fill="#000000" transform="translate(200,199)"/>
<path d="M0 0 C0.33 0 0.66 0 1 0 C1 3.3 1 6.6 1 10 C7.6 10 14.2 10 21 10 C21 6.7 21 3.4 21 0 C21.33 0 21.66 0 22 0 C22 3.3 22 6.6 22 10 C25.3 10 28.6 10 32 10 C32 10.33 32 10.66 32 11 C28.7 11 25.4 11 22 11 C22 17.6 22 24.2 22 31 C21.67 31 21.34 31 21 31 C21 24.4 21 17.8 21 11 C10.77 11 0.54 11 -10 11 C-10 10.67 -10 10.34 -10 10 C-6.7 10 -3.4 10 0 10 C0 6.7 0 3.4 0 0 Z " fill="#8B8B8B" transform="translate(189,262)"/>
</svg>
