<svg xmlns="http://www.w3.org/2000/svg" xmlns:xlink="http://www.w3.org/1999/xlink" width="1080" zoomAndPan="magnify" viewBox="0 0 810 809.999993" height="1080" preserveAspectRatio="xMidYMid meet" version="1.0"><path stroke-linecap="round" transform="matrix(9.333185, 0, 0, 9.333186, 1.175921, 295.444342)" fill="none" stroke-linejoin="round" d="M 21.00032 8.007485 L 21.00032 15.992266 C 21.00032 16.350949 20.909498 16.686194 20.729529 16.995072 C 20.550815 17.305624 20.305136 17.550047 19.994584 17.728761 L 12.994612 21.735381 C 12.685734 21.911165 12.354674 21.999476 12.000176 21.999476 C 11.645678 21.999476 11.313363 21.911165 11.005741 21.735381 L 4.005769 17.728761 C 3.695217 17.550047 3.449119 17.305624 3.269568 16.995072 C 3.089599 16.686194 3.000033 16.350949 3.000033 15.992266 L 3.000033 8.007485 C 3.000033 7.648802 3.089599 7.313975 3.269568 7.004679 C 3.449119 6.694127 3.695217 6.449704 4.005769 6.272664 L 11.005741 2.26437 C 11.313363 2.088586 11.645678 2.000694 12.000176 2.000694 C 12.354674 2.000694 12.685734 2.088586 12.994612 2.26437 L 19.994584 6.272664 C 20.305136 6.449704 20.550815 6.694127 20.729529 7.004679 C 20.909498 7.313975 21.00032 7.648802 21.00032 8.007485 " stroke="#ffffff" stroke-width="2" stroke-opacity="1" stroke-miterlimit="4"/><path stroke-linecap="round" transform="matrix(9.333185, 0, 0, 9.333186, 1.175921, 295.444342)" fill="none" stroke-linejoin="round" d="M 3.290076 6.970359 L 7.500105 9.000665 " stroke="#ffffff" stroke-width="2" stroke-opacity="1" stroke-miterlimit="4"/><path stroke-linecap="round" transform="matrix(9.333185, 0, 0, 9.333186, 1.175921, 295.444342)" fill="none" stroke-linejoin="round" d="M 20.710276 6.970359 L 16.500248 9.000665 " stroke="#ffffff" stroke-width="2" stroke-opacity="1" stroke-miterlimit="4"/><path stroke-linecap="round" transform="matrix(9.333185, 0, 0, 9.333186, 1.175921, 295.444342)" fill="none" stroke-linejoin="round" d="M 20.699394 17.000513 L 3.299703 17.000513 " stroke="#ffffff" stroke-width="2" stroke-opacity="1" stroke-miterlimit="4"/><path stroke-linecap="round" transform="matrix(9.333185, 0, 0, 9.333186, 1.175921, 295.444342)" fill="none" stroke-linejoin="round" d="M 11.759938 2.029573 L 7.500105 9.000665 L 3.199255 16.839796 " stroke="#ffffff" stroke-width="2" stroke-opacity="1" stroke-miterlimit="4"/><path stroke-linecap="round" transform="matrix(9.333185, 0, 0, 9.333186, 1.175921, 295.444342)" fill="none" stroke-linejoin="round" d="M 12.240414 2.029573 C 14.104562 4.989441 15.525065 7.313975 16.500248 9.000665 C 17.475431 10.686099 18.908071 13.300259 20.799424 16.839796 " stroke="#ffffff" stroke-width="2" stroke-opacity="1" stroke-miterlimit="4"/><path stroke-linecap="round" transform="matrix(9.333185, 0, 0, 9.333186, 1.175921, 295.444342)" fill="none" stroke-linejoin="round" d="M 12.000176 17.000513 L 7.500105 9.000665 L 16.500248 9.000665 Z M 12.000176 17.000513 " stroke="#ffffff" stroke-width="2" stroke-opacity="1" stroke-miterlimit="4"/><path stroke-linecap="round" transform="matrix(9.333185, 0, 0, 9.333186, 1.175921, 295.444342)" fill="none" stroke-linejoin="round" d="M 12.000176 17.000513 L 12.000176 22.000731 " stroke="#ffffff" stroke-width="2" stroke-opacity="1" stroke-miterlimit="4"/><path fill="#ffffff" d="M 322.339844 346.464844 L 361.464844 442.875 C 362.003906 444.183594 362.144531 445.285156 361.875 446.207031 C 361.773438 446.59375 361.515625 447.027344 361.105469 447.539062 C 360.695312 448.054688 359.925781 448.308594 358.800781 448.308594 L 343.929688 448.308594 C 341.980469 448.308594 340.621094 447.285156 339.875 445.234375 L 305.363281 359.132812 C 305.289062 358.925781 305.261719 358.824219 305.261719 358.824219 L 304.699219 358.824219 C 304.699219 358.824219 304.660156 358.863281 304.59375 358.925781 C 304.558594 358.964844 304.492188 359.066406 304.390625 359.234375 L 286.59375 404.3125 L 303.824219 404.3125 C 305.773438 404.3125 307.121094 405.257812 307.878906 407.132812 L 312.902344 419.488281 C 313.339844 421.066406 313.160156 422.414062 312.339844 423.542969 C 311.582031 424.847656 310.363281 425.488281 308.699219 425.488281 L 278.238281 425.488281 L 270.339844 445.386719 C 269.582031 447.335938 268.289062 448.308594 266.441406 448.308594 L 251.109375 448.308594 C 250.007812 448.308594 249.238281 448.054688 248.800781 447.539062 C 248.390625 447.027344 248.132812 446.59375 248.03125 446.207031 C 247.75 445.386719 247.851562 444.285156 248.339844 442.875 L 287.160156 346.464844 C 289.003906 341.542969 291.03125 338.15625 293.261719 336.3125 C 293.53125 336.105469 293.851562 335.875 294.238281 335.59375 C 294.609375 335.324219 294.980469 335.105469 295.363281 334.925781 C 298.132812 332.980469 301.324219 332.003906 304.953125 332.003906 C 308.75 332.003906 312.160156 333.171875 315.210938 335.492188 C 318.289062 337.785156 320.390625 340.746094 321.519531 344.363281 C 321.683594 344.644531 321.839844 344.964844 321.980469 345.335938 C 322.109375 345.722656 322.234375 346.09375 322.339844 346.464844 Z M 322.339844 346.464844 " fill-opacity="1" fill-rule="nonzero"/><path fill="#ffffff" d="M 457.03125 388.773438 L 494.3125 442.054688 C 495.132812 443.15625 495.402344 444.296875 495.132812 445.488281 C 494.953125 447.273438 493.929688 448.15625 492.058594 448.15625 L 475.953125 448.15625 C 474.722656 448.15625 473.75 447.976562 473.03125 447.59375 C 472.648438 447.324219 472.289062 447.003906 471.953125 446.617188 C 471.648438 446.246094 471.351562 445.785156 471.082031 445.234375 L 442.980469 405.4375 L 414.726562 445.386719 C 414.171875 446.308594 413.519531 447.003906 412.777344 447.4375 C 412.226562 447.925781 411.25 448.15625 409.851562 448.15625 L 394.519531 448.15625 C 392.777344 448.15625 391.761719 447.273438 391.496094 445.488281 C 391.289062 444.128906 391.609375 442.976562 392.46875 442.054688 L 430.722656 387.902344 L 396.210938 339.644531 C 395.457031 338.621094 395.1875 337.464844 395.390625 336.15625 C 395.558594 334.390625 396.570312 333.492188 398.417969 333.492188 L 414.570312 333.492188 C 415.761719 333.492188 416.738281 333.734375 417.492188 334.210938 C 418.339844 334.863281 418.992188 335.566406 419.441406 336.3125 L 444.058594 371.902344 L 470.210938 336.3125 C 470.683594 335.566406 471.339844 334.863281 472.160156 334.210938 C 472.902344 333.734375 473.878906 333.492188 475.082031 333.492188 L 490.414062 333.492188 C 492.261719 333.492188 493.3125 334.390625 493.59375 336.15625 C 493.800781 337.566406 493.46875 338.722656 492.621094 339.644531 Z M 457.03125 388.773438 " fill-opacity="1" fill-rule="nonzero"/><path fill="#ffffff" d="M 541.191406 333.492188 C 541.726562 333.492188 542.523438 333.785156 543.546875 334.363281 C 544.574219 334.914062 545.085938 336.246094 545.085938 338.363281 L 545.085938 443.4375 C 545.085938 445.566406 544.574219 446.914062 543.546875 447.488281 C 542.523438 448.039062 541.726562 448.308594 541.191406 448.308594 L 528.371094 448.308594 C 527.816406 448.308594 527.035156 448.039062 526.011719 447.488281 C 524.984375 446.914062 524.472656 445.566406 524.472656 443.4375 L 524.472656 338.363281 C 524.472656 336.246094 524.984375 334.914062 526.011719 334.363281 C 527.035156 333.785156 527.816406 333.492188 528.371094 333.492188 Z M 541.191406 333.492188 " fill-opacity="1" fill-rule="nonzero"/><path fill="#ffffff" d="M 670.425781 333.492188 C 671.066406 333.492188 671.886719 333.746094 672.886719 334.261719 C 673.914062 334.773438 674.425781 336.105469 674.425781 338.261719 L 674.425781 349.082031 C 674.425781 351.414062 673.914062 352.824219 672.886719 353.335938 C 671.886719 353.851562 671.066406 354.105469 670.425781 354.105469 L 634.632812 354.105469 L 634.632812 443.4375 C 634.632812 445.566406 634.144531 446.875 633.195312 447.386719 C 632.234375 447.898438 631.425781 448.15625 630.785156 448.15625 L 617.964844 448.15625 C 617.414062 448.15625 616.632812 447.898438 615.605469 447.386719 C 614.582031 446.875 614.070312 445.566406 614.070312 443.4375 L 614.070312 354.105469 L 578.324219 354.105469 C 577.671875 354.105469 576.839844 353.851562 575.8125 353.335938 C 574.789062 352.824219 574.273438 351.414062 574.273438 349.082031 L 574.273438 338.261719 C 574.273438 336.105469 574.789062 334.773438 575.8125 334.261719 C 576.839844 333.746094 577.671875 333.492188 578.324219 333.492188 Z M 670.425781 333.492188 " fill-opacity="1" fill-rule="nonzero"/><path fill="#ffffff" d="M 787.289062 423.234375 C 787.929688 423.234375 788.75 423.488281 789.75 424.003906 C 790.777344 424.515625 791.289062 425.847656 791.289062 428.003906 L 791.289062 443.285156 C 791.289062 445.414062 790.777344 446.71875 789.75 447.234375 C 788.75 447.746094 787.929688 448.003906 787.289062 448.003906 L 737.855469 448.003906 C 734.804688 448.003906 731.984375 447.835938 729.394531 447.488281 C 726.789062 447.117188 724.433594 446.503906 722.316406 445.644531 C 717.765625 444.078125 714.136719 441.527344 711.445312 438.003906 C 708.675781 434.386719 706.675781 429.835938 705.445312 424.363281 C 704.996094 422.042969 704.597656 419.488281 704.265625 416.722656 C 703.957031 413.925781 703.753906 410.914062 703.648438 407.695312 L 703.648438 406.976562 L 703.90625 389.4375 C 704.214844 388.414062 704.726562 387.261719 705.445312 385.953125 C 707.496094 382.335938 710.648438 380.386719 714.933594 380.105469 L 786.726562 380.003906 C 787.265625 380.003906 788.058594 380.261719 789.085938 380.773438 C 790.109375 381.261719 790.621094 382.566406 790.621094 384.722656 L 790.621094 395.695312 C 790.621094 397.847656 790.109375 399.207031 789.085938 399.746094 C 788.058594 400.296875 787.265625 400.566406 786.726562 400.566406 L 724.523438 400.566406 C 724.523438 400.566406 724.484375 401.082031 724.417969 402.105469 C 724.378906 403.132812 724.34375 404.296875 724.316406 405.59375 C 724.277344 406.902344 724.265625 408.054688 724.265625 409.078125 C 724.265625 410.078125 724.265625 410.566406 724.265625 410.566406 C 724.328125 410.953125 724.367188 411.363281 724.367188 411.796875 C 724.367188 412.207031 724.417969 412.605469 724.523438 412.976562 C 724.894531 415.578125 725.675781 417.667969 726.878906 419.234375 C 728.007812 420.605469 729.40625 421.617188 731.085938 422.257812 C 732.074219 422.566406 733.148438 422.808594 734.316406 422.976562 C 735.46875 423.15625 736.804688 423.234375 738.316406 423.234375 Z M 715.90625 381.234375 Z M 787.390625 333.234375 C 787.96875 333.234375 788.75 333.53125 789.75 334.105469 C 790.777344 334.65625 791.289062 335.992188 791.289062 338.105469 L 791.289062 349.082031 C 791.289062 351.234375 790.777344 352.59375 789.75 353.132812 C 788.75 353.683594 787.96875 353.953125 787.390625 353.953125 L 707.394531 353.851562 C 706.84375 353.851562 706.074219 353.59375 705.085938 353.082031 C 704.125 352.566406 703.648438 351.234375 703.648438 349.082031 L 703.648438 338.261719 C 703.648438 336.042969 704.125 334.65625 705.085938 334.105469 C 706.074219 333.53125 706.84375 333.234375 707.394531 333.234375 Z M 787.390625 333.234375 " fill-opacity="1" fill-rule="nonzero"/></svg>